<svg width="24" height="24" viewBox="0 0 24 24" fill="none" xmlns="http://www.w3.org/2000/svg">
<g clip-path="url(#clip0_5065_19767)">
<mask id="mask0_5065_19767" style="mask-type:luminance" maskUnits="userSpaceOnUse" x="2" y="5" width="20" height="15">
<path d="M22 5H2V19.96H22V5Z" fill="white"/>
</mask>
<g mask="url(#mask0_5065_19767)">
<path d="M10.1902 6.72021L8.16016 11.1702H13.5002L12.8402 7.08021L10.1902 6.72021Z" fill="#FFB3FF"/>
<path d="M3.5 11.1701H6.52L8.63 6.52009C5.91 6.30009 3.55 8.42009 3.5 11.1701Z" fill="#FFB3FF"/>
<path d="M14.3999 7.33008L15.0199 11.1701H19.4999C18.4399 9.27008 16.6099 7.85008 14.4099 7.33008H14.3999Z" fill="#FFB3FF"/>
<path d="M8.63 6.52006L6.52 11.1701H8.17L10.19 6.72006L12.84 7.08006L13.5 11.1701H15.02L14.4 7.33006C16.61 7.85006 18.43 9.27006 19.49 11.1701H21.16C19.86 8.29006 17.15 6.15006 13.84 5.70006L9.09 5.06006C5.37 4.55006 2.06 7.42006 2 11.1701H3.5C3.55 8.42006 5.91 6.30006 8.63 6.52006Z" fill="#E9004B"/>
<path d="M21.16 11.1702H2V15.9602C2 16.9302 2.78 17.7102 3.75 17.7102H6.55C6.53 17.6302 6.5 17.5502 6.5 17.4602C6.5 16.9102 6.95 16.4602 7.5 16.4602C8.05 16.4602 8.5 16.9102 8.5 17.4602C8.5 17.5502 8.47 17.6302 8.45 17.7102H15.93C15.91 17.6302 15.88 17.5502 15.88 17.4602C15.88 16.9102 16.33 16.4602 16.88 16.4602C17.43 16.4602 17.88 16.9102 17.88 17.4602C17.88 17.5502 17.85 17.6302 17.83 17.7102H19.37C20.83 17.6902 22.01 16.5002 22.01 15.0302C22.01 13.6602 21.71 12.3502 21.17 11.1602H21.16V11.1702Z" fill="#E9004B"/>
<path d="M16.5 20C17.8807 20 19 18.8807 19 17.5C19 16.1193 17.8807 15 16.5 15C15.1193 15 14 16.1193 14 17.5C14 18.8807 15.1193 20 16.5 20Z" fill="#FFB3FF"/>
<path d="M6.5 20C7.88071 20 9 18.8807 9 17.5C9 16.1193 7.88071 15 6.5 15C5.11929 15 4 16.1193 4 17.5C4 18.8807 5.11929 20 6.5 20Z" fill="#FFB3FF"/>
</g>
</g>
<defs>
<clipPath id="clip0_5065_19767">
<rect width="24" height="24" fill="white"/>
</clipPath>
</defs>
</svg>
