<svg width="163" height="34" viewBox="0 0 163 34" fill="none" xmlns="http://www.w3.org/2000/svg">
<path d="M29.8764 30.5946C28.6075 31.2403 27.525 31.3078 27.0668 30.6686C26.9867 30.5608 26.942 30.444 26.9133 30.3198V30.3033C26.9082 30.2811 26.9023 30.2663 26.8998 30.2375C26.8939 30.2005 26.8888 30.1618 26.8888 30.1232V30.101C26.8829 29.767 27.0137 29.3828 27.2221 29.0085C29.0167 25.8273 34.5253 19.4657 34.5253 13.7663C34.5253 8.43715 33.0632 5.23373 31.8195 3.17709C31.5647 2.76412 31.2222 2.24749 31.0045 1.7465C31.0045 1.7465 30.9969 1.72922 30.9969 1.72511C30.9353 1.57785 30.9041 1.41744 30.9041 1.24715C30.9041 0.55776 31.4753 0 32.1891 0C32.3106 0 32.4338 0.0222117 32.5569 0.0510047C32.5628 0.0584086 32.5721 0.0633445 32.5721 0.0633445C33.2209 0.26654 33.9752 0.681981 34.7422 1.24139C38.155 3.73239 42.4226 9.33632 42.4226 13.7671C42.4243 21.403 33.5112 28.9805 29.8764 30.5946ZM16.0959 31.9881C16.1069 32.2127 16.0006 32.425 15.8259 32.5582C15.7778 32.5936 15.1501 33.0321 14.1435 33.3439C13.2905 33.6186 12.1625 33.863 10.5788 33.9757C4.48376 34.3886 0.259238 29.4544 0.0196205 26.1473C0.0145582 26.1053 0.00612091 25.9918 0.00612091 25.9737C-0.00737866 25.7763 0.00274614 25.5846 0.0238392 25.402C0.212833 24.2469 1.19493 23.3231 2.44701 23.2359C3.46454 23.1652 4.37745 23.6678 4.87862 24.4633L4.88706 24.4682C4.9284 24.5275 4.96552 24.6015 5.00771 24.6723C5.12921 24.8878 5.24901 25.1157 5.36629 25.3435C5.70041 25.9959 6.02186 26.6919 6.46229 27.3278C8.63487 30.532 11.5356 31.2946 14.1284 31.4295C14.5789 31.4534 14.9037 31.4106 15.2311 31.3859C15.2733 31.3859 15.3973 31.381 15.4176 31.381C15.7702 31.3818 16.0664 31.6459 16.0959 31.9881ZM23.9603 17.4131C21.7252 21.6095 17.1328 23.5362 14.9569 21.9419C12.8552 20.3928 11.3373 16.7106 12.732 14.0485C14.5055 10.6526 19.5408 9.69993 22.407 11.0524C24.75 12.1572 25.3794 14.742 23.9603 17.4131ZM26.3623 5.62285C20.6301 2.92618 10.5493 4.82158 7.01071 11.6159C4.23317 16.9352 7.25707 24.2996 11.4689 27.4068C15.8057 30.6077 24.9955 26.7322 29.4655 18.3419C32.303 13.0004 31.045 7.83661 26.3623 5.62285Z" fill="#E40D4C"/>
<path d="M111.525 14.2031C111.003 13.6157 110.394 13.1747 109.695 12.8852C109 12.5956 108.254 12.4533 107.452 12.4533C106.931 12.4533 106.458 12.5248 106.032 12.654C105.603 12.7906 105.218 12.9683 104.877 13.1854C104.533 13.4001 104.24 13.6486 104.001 13.9316C103.753 14.2121 103.55 14.4959 103.386 14.7863C103.364 14.6613 103.339 14.4951 103.317 14.3108C103.306 14.2541 103.295 14.1998 103.283 14.1438C102.705 12.4442 99.7045 13.3639 99.7045 13.3639V23.6554C99.4447 23.7097 98.8676 23.8339 98.7115 23.8495C98.5326 23.8717 98.3647 23.8767 98.2229 23.8767C97.8863 23.8767 97.6079 23.8413 97.3834 23.7656C97.1641 23.6949 96.9818 23.5682 96.8418 23.3765C96.7009 23.1856 96.5988 22.9166 96.5321 22.5728C96.4629 22.2305 96.4359 21.7756 96.4359 21.217V8.77435V8.64766C96.403 7.62428 95.5408 6.80821 94.4844 6.80821H94.4794C93.828 6.80821 93.1733 6.85839 92.5034 6.96616L92.5025 22.0586C92.5025 22.6484 92.5574 23.1832 92.6611 23.6619C92.3844 23.7162 91.8461 23.8388 91.7027 23.8503C91.5238 23.8725 91.3618 23.8775 91.215 23.8775C90.8708 23.8775 90.5991 23.8405 90.3755 23.7664C90.1519 23.6957 89.9722 23.569 89.8347 23.3757C89.6912 23.1865 89.59 22.9174 89.5267 22.5736C89.4617 22.2313 89.428 21.7764 89.428 21.2178V8.77435V8.64766C89.3917 7.62428 88.5311 6.80738 87.4756 6.80738H87.4655C86.815 6.80738 86.1645 6.85839 85.4971 6.96533V22.0578C85.4971 23.7911 85.9308 25.0531 86.793 25.8189C87.657 26.5906 88.8036 26.9723 90.2388 26.9723C90.5915 26.9723 90.9745 26.9534 91.393 26.9147C91.7862 26.881 94.055 26.4968 94.6017 26.3734C95.3383 26.7699 96.2174 26.9731 97.2442 26.9731C97.5969 26.9731 97.985 26.9542 98.4001 26.9155C98.5714 26.904 99.1097 26.8193 99.7037 26.7214V33.2418C100.06 33.2977 100.396 33.3331 100.718 33.3528C101.046 33.3693 101.363 33.3767 101.68 33.3767H101.711H101.727C102.728 33.3685 103.549 32.6363 103.666 31.6911V31.2477V26.9953C103.864 27.0324 104.122 27.0677 104.431 27.0949C104.737 27.122 105.046 27.1319 105.363 27.1319C106.588 27.1319 107.684 26.9583 108.655 26.6046C109.619 26.2541 110.43 25.7498 111.103 25.0991C111.771 24.4517 112.282 23.6578 112.637 22.7208C112.991 21.7921 113.167 20.7415 113.167 19.5635C113.167 18.3468 113.024 17.3012 112.736 16.4127C112.444 15.5292 112.043 14.7904 111.525 14.2031ZM108.04 22.9561C107.425 23.6776 106.54 24.0404 105.391 24.0404C104.741 24.0404 104.167 23.9713 103.666 23.8232V19.0427C103.666 18.5952 103.706 18.1691 103.804 17.7676C103.892 17.3695 104.04 17.0264 104.25 16.7228C104.45 16.4292 104.715 16.1898 105.042 16.0195C105.368 15.8459 105.762 15.7628 106.226 15.7628C106.73 15.7628 107.146 15.8615 107.495 16.0598C107.839 16.2622 108.124 16.5279 108.345 16.8742C108.571 17.2181 108.726 17.6278 108.816 18.1057C108.913 18.5919 108.959 19.1094 108.959 19.6712C108.96 21.1339 108.656 22.2313 108.04 22.9561ZM132.402 13.7053C131.31 12.7971 129.799 12.3422 127.869 12.3422C127.167 12.3422 126.397 12.4097 125.581 12.5364C125.231 12.5907 124.886 12.6606 124.533 12.7404C124.446 12.7593 124.359 12.7807 124.28 12.8004C123.899 12.8959 123.514 13.0069 123.131 13.1311C123.131 13.6157 123.176 14.0361 123.27 14.4054C123.289 14.477 123.303 14.5527 123.322 14.6226C123.346 14.6835 123.368 14.7427 123.384 14.8019C123.625 15.3095 124.149 15.6674 124.759 15.6674H124.772C124.853 15.6674 124.923 15.6633 125 15.6452C125.079 15.6295 125.154 15.6114 125.232 15.5917C125.885 15.4568 126.512 15.386 127.114 15.386C127.581 15.386 128.005 15.4099 128.389 15.4667C128.766 15.5234 129.085 15.6246 129.348 15.7801C129.61 15.9331 129.813 16.1445 129.96 16.4152C130.109 16.6867 130.181 17.0379 130.181 17.4739V17.803C129.531 17.7471 128.939 17.7207 128.405 17.7207C127.657 17.7207 126.915 17.7989 126.171 17.9503C125.425 18.1049 124.753 18.3542 124.151 18.7112C123.544 19.0617 123.055 19.5355 122.668 20.1221C122.294 20.7119 122.101 21.44 122.101 22.3087C122.101 22.7504 122.138 23.1601 122.222 23.5344V23.5237C122.051 23.5641 120.925 23.7294 120.754 23.7467C120.577 23.7615 120.41 23.7705 120.264 23.7705C119.932 23.7705 119.648 23.7352 119.424 23.6677C119.203 23.5904 119.025 23.4604 118.887 23.2695C118.743 23.0803 118.646 22.813 118.579 22.4675C118.513 22.1252 118.481 21.6752 118.481 21.1101V8.67399V8.54154C118.447 7.51816 117.58 6.70044 116.522 6.70044H116.512C115.868 6.70044 115.218 6.75474 114.546 6.85839V21.9508C114.546 23.6891 114.978 24.9412 115.846 25.7153C116.708 26.4837 117.856 26.867 119.289 26.867C119.639 26.867 120.031 26.8497 120.447 26.8144C120.788 26.7839 123.168 26.366 124.195 26.1653C124.691 26.445 125.258 26.6523 125.901 26.7856C126.694 26.9493 127.558 27.0315 128.512 27.0315C129.679 27.0315 131.453 26.7905 132.492 26.5832C133.445 26.3775 134.031 25.6306 134.031 24.7191L134.033 18.044C134.031 16.0573 133.487 14.6086 132.402 13.7053ZM130.179 23.8577C129.975 23.8915 129.738 23.9334 129.46 23.977C129.181 24.0256 128.9 24.0412 128.623 24.0412C128.378 24.0412 128.093 24.033 127.767 23.9992C127.439 23.977 127.136 23.9046 126.852 23.7903C126.562 23.671 126.312 23.4851 126.111 23.2309C125.909 22.98 125.805 22.6139 125.805 22.1466C125.805 21.44 126.067 20.9274 126.599 20.6107C127.129 20.2907 127.848 20.1336 128.76 20.1336C128.964 20.1336 129.202 20.1541 129.46 20.1788C129.713 20.2076 129.958 20.2381 130.179 20.2734V23.8577ZM157.733 13.7053C156.649 12.7971 155.131 12.343 153.202 12.343C152.496 12.343 151.731 12.4097 150.917 12.5364C150.568 12.5907 150.218 12.6606 149.866 12.7412C149.787 12.7593 149.697 12.7807 149.612 12.8004C149.233 12.8959 148.85 13.0069 148.467 13.1311C148.467 13.6149 148.513 14.0352 148.602 14.4046C148.621 14.477 148.639 14.5519 148.662 14.6218C148.676 14.6827 148.703 14.7419 148.725 14.8011C148.958 15.3087 149.481 15.6666 150.09 15.6666H150.107C150.184 15.6666 150.264 15.6633 150.327 15.6452C150.414 15.6287 150.486 15.6106 150.568 15.5909C151.219 15.4568 151.847 15.3852 152.454 15.3852C152.916 15.3852 153.342 15.4091 153.722 15.4667C154.101 15.5242 154.42 15.6246 154.686 15.7801C154.941 15.9331 155.149 16.1445 155.298 16.4152C155.446 16.6867 155.516 17.0387 155.516 17.4748V17.803C154.867 17.7471 154.273 17.7207 153.736 17.7207C152.991 17.7207 152.249 17.7997 151.505 17.9511C150.759 18.1049 150.087 18.3542 149.482 18.7112C148.884 19.0617 148.387 19.5372 148.008 20.1221C147.625 20.7119 147.429 21.44 147.429 22.3087C147.429 23.1799 147.587 23.912 147.894 24.5052C148.198 25.1049 148.635 25.5878 149.204 25.9654C149.777 26.3496 150.449 26.6227 151.242 26.7864C152.032 26.9501 152.901 27.0307 153.847 27.0307C155.021 27.0307 156.791 26.7897 157.824 26.5824C158.785 26.3767 159.369 25.6297 159.369 24.7182V18.0432C159.368 16.0573 158.828 14.6086 157.733 13.7053ZM155.515 23.8577C155.31 23.8915 155.076 23.9334 154.793 23.977C154.517 24.0256 154.238 24.0412 153.955 24.0412C153.713 24.0412 153.43 24.033 153.104 23.9992C152.778 23.977 152.478 23.9046 152.187 23.7919C151.9 23.6718 151.652 23.4851 151.447 23.2309C151.247 22.98 151.142 22.6139 151.142 22.1466C151.142 21.44 151.407 20.9291 151.939 20.6107C152.465 20.2907 153.187 20.1336 154.098 20.1336C154.3 20.1336 154.535 20.1558 154.795 20.1788C155.054 20.2076 155.298 20.2381 155.515 20.2734V23.8577ZM82.0918 13.8074C81 12.9049 79.4915 12.4524 77.561 12.4524C76.8565 12.4524 76.0904 12.5191 75.2729 12.6392C74.9244 12.6951 74.5734 12.7601 74.2216 12.8473C74.1347 12.8687 74.0503 12.8843 73.9659 12.9107C73.5829 13.0028 73.1998 13.1147 72.8159 13.2381C72.8159 13.7177 72.8666 14.1372 72.9509 14.5116C72.9754 14.5848 72.994 14.6605 73.0125 14.7304C73.0319 14.7913 73.0547 14.8464 73.0741 14.9072C73.3137 15.4132 73.8343 15.771 74.4494 15.771H74.4629C74.5388 15.771 74.6122 15.7636 74.6848 15.7496C74.7624 15.7315 74.8358 15.7151 74.9185 15.6986C75.5774 15.5645 76.195 15.4897 76.8067 15.4897C77.2683 15.4897 77.6943 15.5168 78.0723 15.572C78.4562 15.6238 78.776 15.7316 79.0384 15.8879C79.2974 16.0409 79.5024 16.2498 79.6501 16.5238C79.7994 16.7936 79.8745 17.1432 79.8745 17.5759V17.9066C79.2206 17.854 78.63 17.8236 78.0892 17.8236C77.3433 17.8236 76.5975 17.9009 75.8576 18.0556C75.1075 18.2119 74.4359 18.4595 73.8351 18.8149C73.2327 19.1694 72.74 19.64 72.3603 20.2298C71.979 20.8164 71.7874 21.5444 71.7874 22.4115C71.7874 23.2811 71.9368 24.0149 72.2481 24.6064C72.5518 25.2069 72.988 25.6988 73.5576 26.0748C74.1254 26.4557 74.8037 26.7321 75.5909 26.8942C76.3807 27.0513 77.2497 27.1319 78.1989 27.1319C79.3683 27.1319 81.1426 26.8942 82.1796 26.6869C83.1363 26.4828 83.7261 25.7342 83.7261 24.8194V18.1477C83.7278 16.1602 83.1735 14.7106 82.0918 13.8074ZM79.8754 23.9556C79.6653 23.9943 79.4257 24.0313 79.1481 24.0823C78.8713 24.1292 78.5887 24.1481 78.3077 24.1481C78.0723 24.1481 77.7855 24.1333 77.4623 24.1045C77.129 24.0823 76.8228 24.0132 76.541 23.8923C76.2549 23.7747 76.006 23.5854 75.7976 23.3312C75.5951 23.0787 75.4973 22.7208 75.4973 22.2486C75.4973 21.5436 75.7605 21.0294 76.2929 20.7111C76.8177 20.3976 77.5408 20.2405 78.4528 20.2405C78.6604 20.2405 78.889 20.257 79.1481 20.2792C79.4088 20.3063 79.6509 20.3401 79.8754 20.3738V23.9556ZM69.2225 13.8074C69.992 14.686 70.3843 16.0573 70.3843 17.9206V25.1024C70.3843 26.1513 69.5111 27.0052 68.4379 27.0143H68.4117H68.405C67.7536 27.0143 67.0946 26.9567 66.423 26.8473V18.9202C66.423 17.9453 66.3007 17.1951 66.0434 16.6694C65.7945 16.1445 65.2866 15.887 64.5297 15.887C64.2108 15.887 63.8969 15.9298 63.5915 16.0195C63.2852 16.1157 63.011 16.2761 62.7588 16.5188C62.5056 16.7706 62.2981 17.1095 62.1437 17.5562C61.9842 17.9963 61.9024 18.5722 61.9024 19.283V25.0818C61.9024 26.1406 61.0207 27.0052 59.934 27.0151H59.9213H59.9154H59.9104C59.2649 27.0151 58.6102 26.9575 57.9445 26.8481V25.1863C57.9445 25.1444 57.9386 25.1189 57.9386 25.0818C57.9386 25.0514 57.9445 25.0193 57.9445 24.984V18.9202C57.9445 17.9453 57.8213 17.1959 57.5699 16.6694C57.3184 16.1453 56.8122 15.8879 56.0503 15.8879C55.7348 15.8879 55.4201 15.9306 55.102 16.0203C54.783 16.1166 54.5004 16.2868 54.2507 16.5484C54.0026 16.8142 53.8035 17.1802 53.6499 17.6524C53.5065 18.1205 53.4289 18.7277 53.4289 19.4894V25.0876L53.4255 25.0925V25.0868V25.0917C53.4255 25.1271 53.4221 25.1575 53.4221 25.1946C53.4187 25.2266 53.4187 25.2521 53.4187 25.2859C53.4154 25.3212 53.4061 25.3583 53.4027 25.3936C53.3926 25.4175 53.3926 25.4479 53.3892 25.4743C53.3808 25.508 53.3698 25.5401 53.3597 25.5672C53.3588 25.5993 53.3462 25.6281 53.3361 25.6602C53.3327 25.689 53.3175 25.7104 53.3116 25.7326C53.2989 25.7663 53.288 25.805 53.2719 25.8321C53.2618 25.8527 53.2508 25.8691 53.2424 25.8897C53.2247 25.9251 53.212 25.9654 53.1876 26.009C53.1876 26.009 53.1791 26.0156 53.1791 26.0189C52.8391 26.6136 52.1962 27.0151 51.4537 27.0151H51.4487C50.8007 27.0151 50.1375 26.9575 49.4727 26.8481V25.0868V12.8169C49.7351 12.7593 49.9915 12.7198 50.2556 12.6943C50.5113 12.6663 50.8007 12.6532 51.1188 12.6532C51.4309 12.6532 51.7127 12.6663 51.9524 12.6943C52.1962 12.7198 52.4459 12.7601 52.7033 12.8169C52.7556 12.9098 52.8113 13.0374 52.8577 13.2101C52.9007 13.382 52.9463 13.5639 52.9834 13.7506C53.0239 13.9406 53.0576 14.129 53.0787 14.31C53.1159 14.4885 53.131 14.644 53.1488 14.7699C53.2989 14.4951 53.4905 14.2302 53.741 13.9571C53.9807 13.6823 54.2658 13.4454 54.6008 13.2241C54.9341 13.011 55.3078 12.8292 55.728 12.6943C56.1457 12.5577 56.6181 12.4936 57.1353 12.4936C59.3898 12.4936 60.8275 13.3245 61.4577 14.9887C61.829 14.3199 62.3546 13.7374 63.0372 13.2389C63.7088 12.742 64.5736 12.4944 65.6105 12.4944C67.249 12.4928 68.453 12.9255 69.2225 13.8074ZM147.455 26.7049H136.005V26.6984C136.005 26.6984 134.411 26.7946 135.191 25.318L141.044 15.6295H138.194C135.194 15.6221 135.524 12.6754 135.524 12.6754H145.533C145.533 12.6754 145.577 12.6663 145.649 12.6754C146.006 12.6861 147.026 12.8276 146.32 14.1035L146.336 14.0986L140.402 23.7467H145.255C147.381 23.7467 147.489 25.8979 147.455 26.7049ZM147.432 26.9814C147.432 26.9962 147.428 27.0102 147.428 27.0102C147.428 27.0102 147.396 26.9921 147.432 26.9814Z" fill="#565659"/>
<path d="M162.57 14.7724C162.283 15.0537 161.935 15.1936 161.527 15.1936C161.119 15.1936 160.774 15.0537 160.491 14.7724C160.204 14.4918 160.063 14.1554 160.063 13.7564C160.063 13.3623 160.204 13.0267 160.491 12.7478C160.777 12.4689 161.123 12.3315 161.527 12.3315C161.935 12.3315 162.283 12.4689 162.57 12.7478C162.855 13.0267 163 13.3623 163 13.7564C163 14.1545 162.855 14.4918 162.57 14.7724ZM160.631 12.8893C160.385 13.1295 160.265 13.4207 160.265 13.7588C160.265 14.1027 160.385 14.3939 160.628 14.6358C160.878 14.8752 161.172 14.9986 161.525 14.9986C161.875 14.9986 162.176 14.8752 162.423 14.6358C162.666 14.3939 162.79 14.1027 162.79 13.7588C162.79 13.4207 162.667 13.1295 162.423 12.8893C162.172 12.6491 161.875 12.529 161.525 12.529C161.175 12.5282 160.878 12.6491 160.631 12.8893ZM161.5 12.9683C161.7 12.9683 161.849 12.9864 161.945 13.0259C162.112 13.0941 162.195 13.2258 162.195 13.4224C162.195 13.5614 162.142 13.6651 162.037 13.7309C161.983 13.7646 161.906 13.7926 161.804 13.809C161.933 13.8271 162.023 13.8781 162.082 13.962C162.139 14.046 162.168 14.1249 162.168 14.2056V14.3215C162.168 14.3561 162.171 14.3964 162.173 14.4384C162.176 14.4787 162.179 14.5066 162.187 14.519L162.197 14.5396H161.932C161.929 14.5354 161.929 14.5272 161.929 14.5231C161.929 14.5182 161.924 14.5116 161.924 14.5066L161.919 14.4548V14.3298C161.919 14.1496 161.866 14.0295 161.765 13.9694C161.701 13.9382 161.599 13.9209 161.446 13.9209H161.218V14.5387H160.933V12.9675H161.5V12.9683ZM161.814 13.22C161.739 13.1813 161.622 13.1632 161.463 13.1632H161.217V13.7235H161.475C161.599 13.7235 161.691 13.7111 161.754 13.6906C161.864 13.6486 161.923 13.5655 161.923 13.4471C161.923 13.3352 161.885 13.2603 161.814 13.22Z" fill="#565659"/>
</svg>
